<svg xmlns="http://www.w3.org/2000/svg" xmlns:v="https://svgstorm.com"
viewBox = "0 0 877 1139"
width="877"
height="1139">
<g fill="None" fill-opacity="0.0" stroke="#FEFEFE" stroke-opacity="1.00" stroke-width="0.3"><path d="
M 0.00 871.00 
C 9.57 868.83 18.91 866.28 28.22 863.22 C 37.53 860.17 47.74 859.01 57.02 856.02 C 66.31 853.04 76.89 850.87 86.07 848.07 C 95.26 845.28 103.46 841.34 112.68 838.68 C 121.90 836.01 130.67 831.63 139.69 828.69 C 148.72 825.76 157.86 822.85 166.68 819.68 C 175.49 816.51 184.10 813.78 192.23 809.23 C 200.36 804.67 208.91 801.19 217.03 797.03 C 225.15 792.86 230.94 787.08 239.25 783.25 C 247.55 779.41 251.85 771.60 258.25 765.25 C 264.65 758.90 266.04 750.16 276.08 747.08 C 286.11 743.99 280.55 761.64 278.01 770.01 C 275.47 778.38 273.75 790.50 272.22 800.22 C 270.69 809.95 269.72 822.24 268.67 832.67 C 267.62 843.10 267.03 856.45 266.02 867.02 C 265.01 877.60 261.13 885.92 259.22 896.22 C 257.31 906.53 259.82 920.61 261.93 930.07 C 264.03 939.54 266.06 949.11 270.77 957.23 C 275.48 965.35 276.07 976.55 286.00 979.00
C 286.52 1033.70 289.84 1085.00 294.00 1139.00
L 388.00 1139.00
C 390.90 1120.31 392.40 1096.87 395.78 1078.78 C 399.16 1060.68 409.81 1045.92 411.00 1030.00
C 406.72 1029.67 405.89 1028.83 407.00 1024.00
C 396.15 1020.65 394.25 1006.17 385.25 998.75 C 376.25 991.33 374.14 979.30 365.00 972.00
C 359.61 960.10 360.94 953.30 372.08 948.08 C 383.22 942.85 390.10 938.24 402.00 940.00 C 413.90 941.76 425.95 940.18 437.07 940.93 C 448.19 941.67 457.30 937.06 467.22 933.22 C 477.15 929.39 489.34 927.33 498.25 933.75 C 507.16 940.18 513.11 943.45 521.75 950.25 C 530.38 957.06 523.01 967.84 517.69 975.70 C 512.38 983.55 504.39 989.43 500.08 998.08 C 495.78 1006.73 489.73 1014.29 485.23 1023.23 C 480.73 1032.17 478.58 1043.38 481.00 1053.00
C 476.77 1053.48 481.42 1048.85 479.00 1048.00
C 478.06 1051.20 475.09 1049.31 473.00 1049.00
C 475.45 1043.78 467.65 1040.98 469.00 1037.00
C 465.87 1036.91 461.70 1038.07 461.00 1034.00
C 458.46 1034.00 456.74 1036.60 454.00 1036.00
C 454.40 1039.74 452.07 1041.28 449.00 1041.00
C 449.80 1045.22 454.08 1042.27 453.00 1049.00
C 454.87 1047.93 454.57 1044.62 457.00 1044.00
C 457.77 1046.61 455.62 1048.85 457.00 1051.00
C 460.39 1050.61 456.22 1046.60 460.00 1047.00
C 462.60 1051.41 461.81 1056.19 457.00 1052.00
C 457.94 1057.23 464.97 1061.65 462.00 1066.00
C 465.27 1065.90 463.34 1069.98 469.00 1067.00
C 464.90 1069.27 468.15 1070.96 464.00 1072.00
C 465.51 1077.12 465.63 1078.87 468.24 1083.77 C 470.84 1088.67 471.80 1094.06 471.00 1099.00
C 474.55 1099.14 471.96 1101.38 477.00 1103.00
C 473.60 1104.81 474.58 1106.64 479.00 1109.00
C 477.34 1111.41 474.46 1107.92 472.00 1109.00
C 470.40 1114.74 472.60 1114.75 477.00 1117.00
C 474.15 1119.38 471.96 1120.22 477.00 1122.00
C 475.42 1126.92 476.05 1128.67 472.00 1130.00
C 472.79 1132.73 475.95 1130.15 475.00 1134.00
C 470.94 1132.98 472.39 1136.87 473.00 1139.00
L 573.00 1139.00
C 584.43 1090.46 584.05 1039.90 592.80 991.75 C 601.55 943.61 614.72 897.21 619.33 847.33 C 623.94 797.45 616.34 747.46 600.00 701.00
C 615.14 712.98 627.81 727.42 643.75 740.25 C 659.69 753.07 669.83 767.83 686.25 780.75 C 702.67 793.68 728.17 795.29 748.67 801.33 C 769.18 807.37 791.74 814.05 812.68 820.32 C 833.62 826.59 855.72 833.41 877.00 839.00
L 877.00 0.00
L 0.00 0.00
L 0.00 871.00
M 633.00 487.00 
C 633.08 476.88 633.93 466.29 634.00 455.00 C 634.07 443.71 634.85 430.40 633.65 419.30 C 632.44 408.20 631.99 397.52 631.07 386.92 C 630.14 376.31 631.76 364.22 627.67 354.33 C 623.59 344.44 617.46 336.28 613.68 326.32 C 609.90 316.36 606.47 305.59 603.68 295.32 C 600.88 285.05 589.65 278.29 592.93 265.93 C 596.20 253.56 583.70 245.79 580.00 237.00
C 575.66 245.38 569.57 240.36 565.00 237.00
C 566.26 228.84 556.58 227.36 548.77 228.79 C 540.96 230.21 533.73 225.11 525.92 222.08 C 518.12 219.04 508.78 220.81 500.92 221.07 C 493.07 221.33 484.20 221.10 477.00 221.00
C 476.61 219.87 470.65 217.76 465.92 217.08 C 461.20 216.39 457.99 213.63 453.75 211.25 C 449.52 208.86 442.06 214.99 436.78 212.22 C 431.50 209.46 425.33 215.58 419.98 214.98 C 414.62 214.38 408.28 216.71 403.00 217.00 C 397.72 217.29 394.35 222.57 388.99 222.99 C 383.63 223.41 379.23 226.93 374.90 228.90 C 370.57 230.88 365.09 228.54 360.33 230.33 C 355.57 232.12 350.90 231.76 346.00 234.00
C 345.55 244.13 327.75 244.54 332.00 256.00
C 327.26 250.92 329.44 259.94 326.00 260.00
C 329.00 263.16 333.39 262.67 337.00 261.00
C 340.95 273.37 326.73 282.67 320.00 289.00
C 316.22 287.35 316.10 290.52 313.00 288.00
C 312.30 296.15 308.44 302.66 307.00 311.00
C 309.54 312.34 314.96 314.68 310.00 316.00
C 313.81 317.90 320.61 313.42 321.00 320.00
C 332.07 317.83 337.73 324.71 349.22 321.22 C 360.71 317.73 369.76 332.78 380.23 329.79 C 390.70 326.79 400.02 327.57 407.08 336.92 C 414.15 346.27 419.41 350.22 423.32 360.68 C 427.23 371.14 426.79 382.11 427.00 393.00 C 427.21 403.89 423.96 411.95 422.00 422.00
C 416.18 418.59 418.27 426.82 413.00 424.00
C 413.91 425.70 415.64 428.61 412.00 427.00
C 412.79 429.15 415.41 431.24 413.00 434.00
C 410.44 433.34 409.89 428.62 406.00 431.00
C 406.72 428.89 407.69 424.48 405.00 428.00
C 404.48 424.37 401.16 423.53 403.00 419.00
C 400.01 421.54 394.13 418.39 392.00 414.00
C 387.09 418.00 384.09 413.14 380.00 414.00
C 378.06 405.56 381.24 403.15 377.29 395.71 C 373.35 388.26 369.46 393.76 367.08 400.08 C 364.70 406.40 356.63 407.46 358.00 415.00
C 364.79 414.18 370.18 420.95 375.00 415.00
C 369.70 423.19 361.76 422.28 354.25 426.25 C 346.74 430.23 334.34 431.90 325.98 432.02 C 317.61 432.15 302.25 430.03 300.00 436.00
C 295.39 437.96 291.83 432.11 287.00 435.00
C 289.78 431.93 285.22 431.66 283.00 432.00
C 285.92 434.63 283.63 434.99 281.00 436.00
C 281.15 438.91 282.09 442.68 286.00 443.00
C 286.56 450.52 278.07 458.09 279.43 463.77 C 280.79 469.45 278.21 482.37 286.00 484.00
C 286.06 489.15 279.95 487.95 286.00 490.00
C 279.93 493.83 287.58 500.91 292.00 504.00
C 292.03 506.74 290.37 509.08 291.00 512.00
C 294.23 511.94 295.80 515.93 299.00 514.00
C 300.54 518.87 298.15 516.57 295.00 516.00
C 296.71 519.60 301.06 519.22 304.00 521.00
C 302.09 523.33 302.22 523.00 305.00 526.00
C 304.44 528.55 303.02 529.25 305.00 532.00
C 299.92 531.07 304.09 536.29 303.00 539.00
C 305.24 533.16 305.95 540.30 308.75 542.25 C 311.56 544.19 313.26 548.38 312.00 552.00
C 314.89 550.01 318.93 547.54 321.00 552.00
C 318.54 552.88 316.06 550.05 316.00 555.00
C 318.69 556.26 323.72 557.67 324.75 560.26 C 325.78 562.86 330.56 566.82 328.00 569.00
C 331.86 572.86 338.79 567.95 338.00 574.00
C 341.96 571.05 347.78 569.99 351.00 574.00
C 351.05 570.64 355.75 570.57 356.00 567.00
C 363.99 568.48 369.80 556.37 379.00 556.00
C 380.18 552.97 380.71 549.88 384.00 550.00
C 382.52 544.79 386.11 540.55 389.00 536.00
C 381.48 530.33 381.87 520.62 381.33 511.33 C 380.79 502.04 387.70 495.98 389.00 489.00
C 397.71 488.71 406.32 483.30 412.00 479.00
C 414.06 483.33 412.82 479.76 416.00 479.00
C 422.87 485.44 426.38 491.59 430.32 501.68 C 434.27 511.76 444.88 509.26 449.32 518.68 C 453.75 528.10 438.00 530.68 432.70 536.70 C 427.41 542.73 422.17 553.13 418.00 560.00
C 418.66 564.71 426.34 569.20 430.00 569.00
C 430.54 573.39 429.74 575.96 435.00 574.00
C 435.49 577.34 429.42 574.69 431.00 579.00
C 438.93 579.02 435.94 587.43 429.00 587.00 C 422.06 586.57 414.96 588.44 408.98 588.02 C 402.99 587.60 395.06 591.93 396.00 598.00
C 400.14 595.59 397.82 605.83 403.00 604.00
C 401.00 609.82 403.83 615.40 403.00 622.00
C 407.16 618.22 408.43 624.54 408.00 628.00
C 413.21 621.61 417.35 638.11 409.00 635.00
C 410.04 639.09 409.88 641.12 406.00 643.00
C 409.20 647.14 408.79 652.11 405.00 655.00
C 416.96 652.93 410.61 662.83 408.80 669.25 C 407.00 675.66 413.35 683.70 414.00 690.00
C 418.35 688.82 421.04 693.13 420.00 697.00
C 424.78 695.52 425.03 704.26 428.00 700.00
C 431.34 708.28 438.87 714.88 449.00 716.00
C 448.10 719.92 451.33 718.62 453.00 717.00
C 453.52 719.84 456.92 721.11 457.00 724.00
C 461.12 723.20 467.90 726.34 469.00 730.00
C 471.05 728.36 478.97 725.98 476.00 732.00
C 478.57 727.54 482.53 732.27 486.00 734.00
C 483.27 735.30 480.65 734.32 478.00 733.00
C 475.84 734.89 480.15 736.03 478.00 738.00
C 471.59 740.01 463.85 744.36 457.00 748.00
C 459.85 752.59 455.64 751.56 453.00 750.00
C 453.69 751.48 453.74 753.99 453.00 755.00
C 447.21 754.00 439.94 761.59 437.00 766.00
C 435.79 760.53 430.92 765.93 427.00 765.00
C 428.69 766.84 426.48 769.84 424.00 769.00
C 422.40 772.35 425.06 775.98 422.00 778.00
C 427.80 781.76 427.53 785.92 430.77 792.23 C 434.01 798.54 433.72 800.82 429.75 806.75 C 425.79 812.68 417.77 811.83 417.00 818.00
C 411.91 812.39 413.92 822.73 407.97 820.97 C 402.03 819.22 404.25 825.18 403.22 829.22 C 402.18 833.27 395.23 829.34 397.00 836.00
C 390.48 834.43 384.66 836.33 379.00 832.00
C 380.40 829.78 378.87 826.88 376.00 827.00
C 380.19 833.52 370.50 827.62 371.00 833.00
C 368.08 833.30 365.57 832.07 363.00 831.00
C 362.21 834.90 364.62 835.94 365.00 839.00
C 354.67 833.92 350.15 822.58 342.25 813.75 C 334.35 804.93 329.23 795.55 322.70 785.31 C 316.16 775.06 311.49 764.87 307.07 752.93 C 302.66 740.98 299.32 725.48 301.98 711.98 C 304.63 698.47 304.55 681.43 304.00 668.00 C 303.45 654.57 297.97 642.81 292.25 631.75 C 286.52 620.70 284.82 607.17 279.08 596.92 C 273.33 586.67 272.86 571.03 265.25 562.75 C 257.64 554.48 239.13 563.14 233.08 550.92 C 227.02 538.71 225.40 529.30 222.02 515.98 C 218.65 502.65 215.02 494.22 208.70 482.30 C 202.37 470.39 196.18 463.37 194.35 449.31 C 192.52 435.24 199.08 426.22 215.07 426.07 C 231.07 425.93 221.25 405.70 217.67 395.33 C 214.10 384.95 210.34 369.02 208.22 356.78 C 206.10 344.54 201.97 329.98 200.02 316.98 C 198.08 303.97 196.93 289.96 194.22 276.78 C 191.51 263.60 193.02 246.22 194.00 233.00 C 194.98 219.78 194.37 204.76 200.31 193.31 C 206.24 181.85 211.69 173.33 218.10 163.10 C 224.51 152.87 229.62 142.86 235.97 132.97 C 242.33 123.09 248.47 112.92 255.77 103.77 C 263.07 94.62 267.86 84.39 275.77 75.77 C 283.68 67.15 292.88 61.48 301.90 53.90 C 310.92 46.32 318.39 38.76 329.03 33.03 C 339.66 27.30 350.51 23.28 362.23 18.23 C 373.95 13.18 385.90 7.79 400.00 8.00 C 414.10 8.21 432.23 8.61 446.00 8.00 C 459.78 7.39 472.90 11.56 484.03 17.97 C 495.16 24.38 504.41 29.52 515.68 34.32 C 526.95 39.12 534.05 48.32 544.25 53.75 C 554.44 59.19 566.43 63.04 575.25 70.75 C 584.07 78.46 590.69 87.70 598.30 96.70 C 605.91 105.69 615.80 110.87 626.23 116.77 C 636.66 122.67 645.78 128.33 650.92 140.08 C 656.07 151.82 662.31 162.53 662.98 176.02 C 663.65 189.52 666.11 203.50 666.33 216.67 C 666.55 229.84 669.79 241.73 672.00 255.00 C 674.21 268.27 678.88 284.23 677.00 298.00 C 675.12 311.77 668.42 320.36 666.20 333.25 C 663.97 346.13 660.74 359.99 658.01 373.01 C 655.27 386.03 653.55 400.09 650.01 413.01 C 646.46 425.93 648.93 439.87 643.07 452.07 C 637.21 464.28 641.76 477.41 633.00 487.00
M 553.00 329.00 
C 558.07 324.75 570.05 323.31 571.00 332.00
C 581.22 330.61 581.08 339.42 588.30 343.70 C 595.52 347.98 595.86 358.37 586.99 354.01 C 578.12 349.65 572.03 351.71 564.31 352.31 C 556.58 352.90 550.55 354.82 543.25 356.40 C 535.95 357.97 530.47 363.92 524.00 367.00
C 524.69 370.11 528.42 373.17 525.00 376.00
C 542.24 380.48 559.98 385.48 575.00 395.00
C 569.11 390.89 571.85 382.32 577.69 386.31 C 583.54 390.29 586.01 393.80 583.00 399.00
C 580.68 395.24 580.02 399.84 578.00 400.00
C 586.11 410.77 567.82 408.23 563.92 404.08 C 560.03 399.92 551.34 389.96 547.70 397.70 C 544.05 405.44 539.78 410.79 531.00 411.00 C 522.22 411.21 514.35 409.00 512.00 400.00
C 507.46 400.02 506.08 405.03 503.00 407.00
C 499.43 404.29 489.78 403.80 491.20 397.75 C 492.61 391.71 491.40 385.74 486.00 382.00
C 487.72 379.73 486.73 376.66 487.00 374.00
C 479.40 373.80 481.36 361.15 479.68 354.32 C 478.00 347.50 480.28 338.17 480.00 331.00
C 488.72 324.77 498.09 329.63 506.22 332.78 C 514.36 335.92 521.76 319.94 529.68 325.32 C 537.59 330.71 545.16 320.71 553.00 329.00
M 525.00 422.00 
C 521.14 420.38 517.35 420.56 513.00 418.00
C 516.03 413.75 522.89 416.74 525.00 422.00
M 415.00 443.00 
C 408.56 440.88 414.47 436.68 415.00 443.00
M 669.00 470.00 
C 659.86 469.81 651.28 443.75 665.08 440.08 C 678.87 436.40 670.04 462.61 669.00 470.00
M 489.00 518.00 
C 485.31 520.56 477.23 522.50 481.00 515.00
C 475.61 512.69 458.58 510.45 464.26 502.26 C 469.93 494.06 478.22 491.79 486.68 495.32 C 495.14 498.85 489.29 512.65 489.00 518.00
M 513.00 591.00 
C 517.41 604.54 501.84 601.00 495.75 598.25 C 489.67 595.49 478.09 583.89 487.25 582.80 C 496.40 581.72 503.44 592.98 513.00 591.00
M 583.00 655.00 
C 580.93 656.40 579.32 656.89 577.00 656.00
C 578.29 655.20 581.87 653.33 583.00 655.00
M 544.00 698.00 
C 538.75 693.46 547.03 691.57 544.00 698.00
M 539.00 701.00 
C 538.69 703.78 533.69 702.22 536.00 707.00
C 531.59 709.45 525.67 710.11 526.00 715.00
C 521.46 716.30 525.46 712.18 523.00 711.00
C 522.11 715.11 518.34 717.75 520.00 722.00
C 514.64 718.73 510.64 722.03 505.00 723.00
C 505.52 717.48 511.58 720.02 509.00 715.00
C 516.40 719.86 517.42 704.18 525.00 708.00
C 523.12 704.84 526.39 703.79 529.00 705.00
C 528.52 702.34 532.53 701.68 532.00 699.00
C 534.35 699.26 538.07 697.97 539.00 701.00
M 462.00 1038.00 
C 459.18 1041.21 458.26 1035.11 462.00 1038.00
M 490.00 1084.00 
C 486.57 1081.30 485.40 1086.84 483.00 1088.00
C 483.90 1084.24 481.71 1080.32 486.00 1079.00
C 481.90 1079.12 479.61 1077.46 479.00 1073.00
C 484.55 1075.66 485.35 1068.90 484.00 1065.00
C 488.63 1068.76 491.15 1077.76 490.00 1084.00
M 489.00 1091.00 
C 484.68 1093.04 486.04 1091.50 488.00 1095.00
C 483.53 1094.51 482.27 1092.17 481.00 1088.00
C 483.38 1089.74 485.80 1091.56 489.00 1091.00
M 483.00 1105.00 
C 485.81 1100.72 484.00 1100.21 480.00 1099.00
C 485.79 1090.65 491.03 1105.45 483.00 1105.00
M 501.00 1120.00 
C 503.47 1123.99 498.00 1129.74 494.78 1126.22 C 491.56 1122.70 499.98 1121.87 501.00 1120.00 Z"/>
</g>
<g fill="None" fill-opacity="0.0" stroke="#000000" stroke-opacity="1.00" stroke-width="0.3"><path d="
M 633.00 487.00 
C 641.76 477.41 637.21 464.28 643.07 452.07 C 648.93 439.87 646.46 425.93 650.01 413.01 C 653.55 400.09 655.27 386.03 658.01 373.01 C 660.74 359.99 663.97 346.13 666.20 333.25 C 668.42 320.36 675.12 311.77 677.00 298.00 C 678.88 284.23 674.21 268.27 672.00 255.00 C 669.79 241.73 666.55 229.84 666.33 216.67 C 666.11 203.50 663.65 189.52 662.98 176.02 C 662.31 162.53 656.07 151.82 650.92 140.08 C 645.78 128.33 636.66 122.67 626.23 116.77 C 615.80 110.87 605.91 105.69 598.30 96.70 C 590.69 87.70 584.07 78.46 575.25 70.75 C 566.43 63.04 554.44 59.19 544.25 53.75 C 534.05 48.32 526.95 39.12 515.68 34.32 C 504.41 29.52 495.16 24.38 484.03 17.97 C 472.90 11.56 459.78 7.39 446.00 8.00 C 432.23 8.61 414.10 8.21 400.00 8.00 C 385.90 7.79 373.95 13.18 362.23 18.23 C 350.51 23.28 339.66 27.30 329.03 33.03 C 318.39 38.76 310.92 46.32 301.90 53.90 C 292.88 61.48 283.68 67.15 275.77 75.77 C 267.86 84.39 263.07 94.62 255.77 103.77 C 248.47 112.92 242.33 123.09 235.97 132.97 C 229.62 142.86 224.51 152.87 218.10 163.10 C 211.69 173.33 206.24 181.85 200.31 193.31 C 194.37 204.76 194.98 219.78 194.00 233.00 C 193.02 246.22 191.51 263.60 194.22 276.78 C 196.93 289.96 198.08 303.97 200.02 316.98 C 201.97 329.98 206.10 344.54 208.22 356.78 C 210.34 369.02 214.10 384.95 217.67 395.33 C 221.25 405.70 231.07 425.93 215.07 426.07 C 199.08 426.22 192.52 435.24 194.35 449.31 C 196.18 463.37 202.37 470.39 208.70 482.30 C 215.02 494.22 218.65 502.65 222.02 515.98 C 225.40 529.30 227.02 538.71 233.08 550.92 C 239.13 563.14 257.64 554.48 265.25 562.75 C 272.86 571.03 273.33 586.67 279.08 596.92 C 284.82 607.17 286.52 620.70 292.25 631.75 C 297.97 642.81 303.45 654.57 304.00 668.00 C 304.55 681.43 304.63 698.47 301.98 711.98 C 299.32 725.48 302.66 740.98 307.07 752.93 C 311.49 764.87 316.16 775.06 322.70 785.31 C 329.23 795.55 334.35 804.93 342.25 813.75 C 350.15 822.58 354.67 833.92 365.00 839.00
C 364.62 835.94 362.21 834.90 363.00 831.00
C 365.57 832.07 368.08 833.30 371.00 833.00
C 370.50 827.62 380.19 833.52 376.00 827.00
C 378.87 826.88 380.40 829.78 379.00 832.00
C 384.66 836.33 390.48 834.43 397.00 836.00
C 395.23 829.34 402.18 833.27 403.22 829.22 C 404.25 825.18 402.03 819.22 407.97 820.97 C 413.92 822.73 411.91 812.39 417.00 818.00
C 417.77 811.83 425.79 812.68 429.75 806.75 C 433.72 800.82 434.01 798.54 430.77 792.23 C 427.53 785.92 427.80 781.76 422.00 778.00
C 425.06 775.98 422.40 772.35 424.00 769.00
C 426.48 769.84 428.69 766.84 427.00 765.00
C 430.92 765.93 435.79 760.53 437.00 766.00
C 439.94 761.59 447.21 754.00 453.00 755.00
C 453.74 753.99 453.69 751.48 453.00 750.00
C 455.64 751.56 459.85 752.59 457.00 748.00
C 463.85 744.36 471.59 740.01 478.00 738.00
C 480.15 736.03 475.84 734.89 478.00 733.00
C 480.65 734.32 483.27 735.30 486.00 734.00
C 482.53 732.27 478.57 727.54 476.00 732.00
C 478.97 725.98 471.05 728.36 469.00 730.00
C 467.90 726.34 461.12 723.20 457.00 724.00
C 456.92 721.11 453.52 719.84 453.00 717.00
C 451.33 718.62 448.10 719.92 449.00 716.00
C 438.87 714.88 431.34 708.28 428.00 700.00
C 425.03 704.26 424.78 695.52 420.00 697.00
C 421.04 693.13 418.35 688.82 414.00 690.00
C 413.35 683.70 407.00 675.66 408.80 669.25 C 410.61 662.83 416.96 652.93 405.00 655.00
C 408.79 652.11 409.20 647.14 406.00 643.00
C 409.88 641.12 410.04 639.09 409.00 635.00
C 417.35 638.11 413.21 621.61 408.00 628.00
C 408.43 624.54 407.16 618.22 403.00 622.00
C 403.83 615.40 401.00 609.82 403.00 604.00
C 397.82 605.83 400.14 595.59 396.00 598.00
C 395.06 591.93 402.99 587.60 408.98 588.02 C 414.96 588.44 422.06 586.57 429.00 587.00 C 435.94 587.43 438.93 579.02 431.00 579.00
C 429.42 574.69 435.49 577.34 435.00 574.00
C 429.74 575.96 430.54 573.39 430.00 569.00
C 426.34 569.20 418.66 564.71 418.00 560.00
C 422.17 553.13 427.41 542.73 432.70 536.70 C 438.00 530.68 453.75 528.10 449.32 518.68 C 444.88 509.26 434.27 511.76 430.32 501.68 C 426.38 491.59 422.87 485.44 416.00 479.00
C 412.82 479.76 414.06 483.33 412.00 479.00
C 406.32 483.30 397.71 488.71 389.00 489.00
C 387.70 495.98 380.79 502.04 381.33 511.33 C 381.87 520.62 381.48 530.33 389.00 536.00
C 386.11 540.55 382.52 544.79 384.00 550.00
C 380.71 549.88 380.18 552.97 379.00 556.00
C 369.80 556.37 363.99 568.48 356.00 567.00
C 355.75 570.57 351.05 570.64 351.00 574.00
C 347.78 569.99 341.96 571.05 338.00 574.00
C 338.79 567.95 331.86 572.86 328.00 569.00
C 330.56 566.82 325.78 562.86 324.75 560.26 C 323.72 557.67 318.69 556.26 316.00 555.00
C 316.06 550.05 318.54 552.88 321.00 552.00
C 318.93 547.54 314.89 550.01 312.00 552.00
C 313.26 548.38 311.56 544.19 308.75 542.25 C 305.95 540.30 305.24 533.16 303.00 539.00
C 304.09 536.29 299.92 531.07 305.00 532.00
C 303.02 529.25 304.44 528.55 305.00 526.00
C 302.22 523.00 302.09 523.33 304.00 521.00
C 301.06 519.22 296.71 519.60 295.00 516.00
C 298.15 516.57 300.54 518.87 299.00 514.00
C 295.80 515.93 294.23 511.94 291.00 512.00
C 290.37 509.08 292.03 506.74 292.00 504.00
C 287.58 500.91 279.93 493.83 286.00 490.00
C 279.95 487.95 286.06 489.15 286.00 484.00
C 278.21 482.37 280.79 469.45 279.43 463.77 C 278.07 458.09 286.56 450.52 286.00 443.00
C 282.09 442.68 281.15 438.91 281.00 436.00
C 283.63 434.99 285.92 434.63 283.00 432.00
C 285.22 431.66 289.78 431.93 287.00 435.00
C 291.83 432.11 295.39 437.96 300.00 436.00
C 302.25 430.03 317.61 432.15 325.98 432.02 C 334.34 431.90 346.74 430.23 354.25 426.25 C 361.76 422.28 369.70 423.19 375.00 415.00
C 370.18 420.95 364.79 414.18 358.00 415.00
C 356.63 407.46 364.70 406.40 367.08 400.08 C 369.46 393.76 373.35 388.26 377.29 395.71 C 381.24 403.15 378.06 405.56 380.00 414.00
C 384.09 413.14 387.09 418.00 392.00 414.00
C 394.13 418.39 400.01 421.54 403.00 419.00
C 401.16 423.53 404.48 424.37 405.00 428.00
C 407.69 424.48 406.72 428.89 406.00 431.00
C 409.89 428.62 410.44 433.34 413.00 434.00
C 415.41 431.24 412.79 429.15 412.00 427.00
C 415.64 428.61 413.91 425.70 413.00 424.00
C 418.27 426.82 416.18 418.59 422.00 422.00
C 423.96 411.95 427.21 403.89 427.00 393.00 C 426.79 382.11 427.23 371.14 423.32 360.68 C 419.41 350.22 414.15 346.27 407.08 336.92 C 400.02 327.57 390.70 326.79 380.23 329.79 C 369.76 332.78 360.71 317.73 349.22 321.22 C 337.73 324.71 332.07 317.83 321.00 320.00
C 320.61 313.42 313.81 317.90 310.00 316.00
C 314.96 314.68 309.54 312.34 307.00 311.00
C 308.44 302.66 312.30 296.15 313.00 288.00
C 316.10 290.52 316.22 287.35 320.00 289.00
C 326.73 282.67 340.95 273.37 337.00 261.00
C 333.39 262.67 329.00 263.16 326.00 260.00
C 329.44 259.94 327.26 250.92 332.00 256.00
C 327.75 244.54 345.55 244.13 346.00 234.00
C 350.90 231.76 355.57 232.12 360.33 230.33 C 365.09 228.54 370.57 230.88 374.90 228.90 C 379.23 226.93 383.63 223.41 388.99 222.99 C 394.35 222.57 397.72 217.29 403.00 217.00 C 408.28 216.71 414.62 214.38 419.98 214.98 C 425.33 215.58 431.50 209.46 436.78 212.22 C 442.06 214.99 449.52 208.86 453.75 211.25 C 457.99 213.63 461.20 216.39 465.92 217.08 C 470.65 217.76 476.61 219.87 477.00 221.00
C 484.20 221.10 493.07 221.33 500.92 221.07 C 508.78 220.81 518.12 219.04 525.92 222.08 C 533.73 225.11 540.96 230.21 548.77 228.79 C 556.58 227.36 566.26 228.84 565.00 237.00
C 569.57 240.36 575.66 245.38 580.00 237.00
C 583.70 245.79 596.20 253.56 592.93 265.93 C 589.65 278.29 600.88 285.05 603.68 295.32 C 606.47 305.59 609.90 316.36 613.68 326.32 C 617.46 336.28 623.59 344.44 627.67 354.33 C 631.76 364.22 630.14 376.31 631.07 386.92 C 631.99 397.52 632.44 408.20 633.65 419.30 C 634.85 430.40 634.07 443.71 634.00 455.00 C 633.93 466.29 633.08 476.88 633.00 487.00
M 482.00 200.00 
C 484.81 203.92 477.61 203.85 476.00 202.00
C 478.32 202.44 480.02 200.76 482.00 200.00
M 479.00 207.00 
C 478.29 208.89 476.63 211.85 474.00 212.00
C 474.42 209.19 475.21 205.88 479.00 207.00
M 365.00 377.00 
C 357.36 378.10 345.02 380.55 344.00 372.00
C 337.49 373.74 332.52 370.40 327.00 373.00
C 326.74 365.95 335.51 364.08 343.67 365.33 C 351.83 366.58 357.46 372.93 365.00 377.00
M 267.00 510.00 
C 263.61 514.65 262.11 506.93 267.00 510.00
M 306.00 543.00 
C 301.76 541.38 306.89 538.18 306.00 543.00
M 430.00 578.00 
C 427.18 581.21 426.26 575.11 430.00 578.00
M 375.00 605.00 
C 376.56 607.92 375.19 613.71 371.00 611.00
C 372.99 609.68 374.27 608.56 373.00 606.00
C 371.47 609.45 369.77 608.06 367.00 607.00
C 368.41 604.71 371.65 603.21 368.00 600.00
C 373.28 598.87 370.52 605.76 375.00 605.00
M 376.00 729.00 
C 374.38 733.24 371.18 728.11 376.00 729.00 Z"/>
</g>
<g fill="None" fill-opacity="0.0" stroke="#E0E0E0" stroke-opacity="1.00" stroke-width="0.3"><path d="
M 482.00 200.00 
C 480.02 200.76 478.32 202.44 476.00 202.00
C 477.61 203.85 484.81 203.92 482.00 200.00 Z"/>
</g>
<g fill="None" fill-opacity="0.0" stroke="#FFFFFF" stroke-opacity="1.00" stroke-width="0.3"><path d="
M 479.00 207.00 
C 475.21 205.88 474.42 209.19 474.00 212.00
C 476.63 211.85 478.29 208.89 479.00 207.00 Z"/>
</g>
<g fill="None" fill-opacity="0.0" stroke="#000000" stroke-opacity="1.00" stroke-width="0.3"><path d="
M 553.00 329.00 
C 545.16 320.71 537.59 330.71 529.68 325.32 C 521.76 319.94 514.36 335.92 506.22 332.78 C 498.09 329.63 488.72 324.77 480.00 331.00
C 480.28 338.17 478.00 347.50 479.68 354.32 C 481.36 361.15 479.40 373.80 487.00 374.00
C 486.73 376.66 487.72 379.73 486.00 382.00
C 491.40 385.74 492.61 391.71 491.20 397.75 C 489.78 403.80 499.43 404.29 503.00 407.00
C 506.08 405.03 507.46 400.02 512.00 400.00
C 514.35 409.00 522.22 411.21 531.00 411.00 C 539.78 410.79 544.05 405.44 547.70 397.70 C 551.34 389.96 560.03 399.92 563.92 404.08 C 567.82 408.23 586.11 410.77 578.00 400.00
C 580.02 399.84 580.68 395.24 583.00 399.00
C 586.01 393.80 583.54 390.29 577.69 386.31 C 571.85 382.32 569.11 390.89 575.00 395.00
C 559.98 385.48 542.24 380.48 525.00 376.00
C 528.42 373.17 524.69 370.11 524.00 367.00
C 530.47 363.92 535.95 357.97 543.25 356.40 C 550.55 354.82 556.58 352.90 564.31 352.31 C 572.03 351.71 578.12 349.65 586.99 354.01 C 595.86 358.37 595.52 347.98 588.30 343.70 C 581.08 339.42 581.22 330.61 571.00 332.00
C 570.05 323.31 558.07 324.75 553.00 329.00 Z"/>
</g>
<g fill="None" fill-opacity="0.0" stroke="#FFFFFF" stroke-opacity="1.00" stroke-width="0.3"><path d="
M 365.00 377.00 
C 357.46 372.93 351.83 366.58 343.67 365.33 C 335.51 364.08 326.74 365.95 327.00 373.00
C 332.52 370.40 337.49 373.74 344.00 372.00
C 345.02 380.55 357.36 378.10 365.00 377.00 Z"/>
</g>
<g fill="None" fill-opacity="0.0" stroke="#000000" stroke-opacity="1.00" stroke-width="0.3"><path d="
M 525.00 422.00 
C 522.89 416.74 516.03 413.75 513.00 418.00
C 517.35 420.56 521.14 420.38 525.00 422.00 Z"/>
</g>
<g fill="None" fill-opacity="0.0" stroke="#060606" stroke-opacity="1.00" stroke-width="0.3"><path d="
M 415.00 443.00 
C 414.47 436.68 408.56 440.88 415.00 443.00 Z"/>
</g>
<g fill="None" fill-opacity="0.0" stroke="#000000" stroke-opacity="1.00" stroke-width="0.3"><path d="
M 669.00 470.00 
C 670.04 462.61 678.87 436.40 665.08 440.08 C 651.28 443.75 659.86 469.81 669.00 470.00 Z"/>
</g>
<g fill="None" fill-opacity="0.0" stroke="#000000" stroke-opacity="1.00" stroke-width="0.3"><path d="
M 489.00 518.00 
C 489.29 512.65 495.14 498.85 486.68 495.32 C 478.22 491.79 469.93 494.06 464.26 502.26 C 458.58 510.45 475.61 512.69 481.00 515.00
C 477.23 522.50 485.31 520.56 489.00 518.00 Z"/>
</g>
<g fill="None" fill-opacity="0.0" stroke="#FFFFFF" stroke-opacity="1.00" stroke-width="0.3"><path d="
M 267.00 510.00 
C 262.11 506.93 263.61 514.65 267.00 510.00 Z"/>
</g>
<g fill="None" fill-opacity="0.0" stroke="#FFFFFF" stroke-opacity="1.00" stroke-width="0.3"><path d="
M 306.00 543.00 
C 306.89 538.18 301.76 541.38 306.00 543.00 Z"/>
</g>
<g fill="None" fill-opacity="0.0" stroke="#FFFFFF" stroke-opacity="1.00" stroke-width="0.3"><path d="
M 430.00 578.00 
C 426.26 575.11 427.18 581.21 430.00 578.00 Z"/>
</g>
<g fill="None" fill-opacity="0.0" stroke="#000000" stroke-opacity="1.00" stroke-width="0.3"><path d="
M 513.00 591.00 
C 503.44 592.98 496.40 581.72 487.25 582.80 C 478.09 583.89 489.67 595.49 495.75 598.25 C 501.84 601.00 517.41 604.54 513.00 591.00 Z"/>
</g>
<g fill="None" fill-opacity="0.0" stroke="#FFFFFF" stroke-opacity="1.00" stroke-width="0.3"><path d="
M 375.00 605.00 
C 370.52 605.76 373.28 598.87 368.00 600.00
C 371.65 603.21 368.41 604.71 367.00 607.00
C 369.77 608.06 371.47 609.45 373.00 606.00
C 374.27 608.56 372.99 609.68 371.00 611.00
C 375.19 613.71 376.56 607.92 375.00 605.00 Z"/>
</g>
<g fill="None" fill-opacity="0.0" stroke="#000000" stroke-opacity="1.00" stroke-width="0.3"><path d="
M 583.00 655.00 
C 581.87 653.33 578.29 655.20 577.00 656.00
C 579.32 656.89 580.93 656.40 583.00 655.00 Z"/>
</g>
<g fill="None" fill-opacity="0.0" stroke="#000000" stroke-opacity="1.00" stroke-width="0.3"><path d="
M 544.00 698.00 
C 547.03 691.57 538.75 693.46 544.00 698.00 Z"/>
</g>
<g fill="None" fill-opacity="0.0" stroke="#000000" stroke-opacity="1.00" stroke-width="0.3"><path d="
M 539.00 701.00 
C 538.07 697.97 534.35 699.26 532.00 699.00
C 532.53 701.68 528.52 702.34 529.00 705.00
C 526.39 703.79 523.12 704.84 525.00 708.00
C 517.42 704.18 516.40 719.86 509.00 715.00
C 511.58 720.02 505.52 717.48 505.00 723.00
C 510.64 722.03 514.64 718.73 520.00 722.00
C 518.34 717.75 522.11 715.11 523.00 711.00
C 525.46 712.18 521.46 716.30 526.00 715.00
C 525.67 710.11 531.59 709.45 536.00 707.00
C 533.69 702.22 538.69 703.78 539.00 701.00 Z"/>
</g>
<g fill="None" fill-opacity="0.0" stroke="#000000" stroke-opacity="1.00" stroke-width="0.3"><path d="
M 573.00 1139.00 
L 877.00 1139.00
L 877.00 839.00
C 855.72 833.41 833.62 826.59 812.68 820.32 C 791.74 814.05 769.18 807.37 748.67 801.33 C 728.17 795.29 702.67 793.68 686.25 780.75 C 669.83 767.83 659.69 753.07 643.75 740.25 C 627.81 727.42 615.14 712.98 600.00 701.00
C 616.34 747.46 623.94 797.45 619.33 847.33 C 614.72 897.21 601.55 943.61 592.80 991.75 C 584.05 1039.90 584.43 1090.46 573.00 1139.00 Z"/>
</g>
<g fill="None" fill-opacity="0.0" stroke="#FFFFFF" stroke-opacity="1.00" stroke-width="0.3"><path d="
M 376.00 729.00 
C 371.18 728.11 374.38 733.24 376.00 729.00 Z"/>
</g>
<g fill="None" fill-opacity="0.0" stroke="#000000" stroke-opacity="1.00" stroke-width="0.3"><path d="
M 0.00 871.00 
L 0.00 1139.00
L 294.00 1139.00
C 289.84 1085.00 286.52 1033.70 286.00 979.00
C 276.07 976.55 275.48 965.35 270.77 957.23 C 266.06 949.11 264.03 939.54 261.93 930.07 C 259.82 920.61 257.31 906.53 259.22 896.22 C 261.13 885.92 265.01 877.60 266.02 867.02 C 267.03 856.45 267.62 843.10 268.67 832.67 C 269.72 822.24 270.69 809.95 272.22 800.22 C 273.75 790.50 275.47 778.38 278.01 770.01 C 280.55 761.64 286.11 743.99 276.08 747.08 C 266.04 750.16 264.65 758.90 258.25 765.25 C 251.85 771.60 247.55 779.41 239.25 783.25 C 230.94 787.08 225.15 792.86 217.03 797.03 C 208.91 801.19 200.36 804.67 192.23 809.23 C 184.10 813.78 175.49 816.51 166.68 819.68 C 157.86 822.85 148.72 825.76 139.69 828.69 C 130.67 831.63 121.90 836.01 112.68 838.68 C 103.46 841.34 95.26 845.28 86.07 848.07 C 76.89 850.87 66.31 853.04 57.02 856.02 C 47.74 859.01 37.53 860.17 28.22 863.22 C 18.91 866.28 9.57 868.83 0.00 871.00 Z"/>
</g>
<g fill="None" fill-opacity="0.0" stroke="#000000" stroke-opacity="1.00" stroke-width="0.3"><path d="
M 388.00 1139.00 
L 473.00 1139.00
C 472.39 1136.87 470.94 1132.98 475.00 1134.00
C 475.95 1130.15 472.79 1132.73 472.00 1130.00
C 476.05 1128.67 475.42 1126.92 477.00 1122.00
C 471.96 1120.22 474.15 1119.38 477.00 1117.00
C 472.60 1114.75 470.40 1114.74 472.00 1109.00
C 474.46 1107.92 477.34 1111.41 479.00 1109.00
C 474.58 1106.64 473.60 1104.81 477.00 1103.00
C 471.96 1101.38 474.55 1099.14 471.00 1099.00
C 471.80 1094.06 470.84 1088.67 468.24 1083.77 C 465.63 1078.87 465.51 1077.12 464.00 1072.00
C 468.15 1070.96 464.90 1069.27 469.00 1067.00
C 463.34 1069.98 465.27 1065.90 462.00 1066.00
C 464.97 1061.65 457.94 1057.23 457.00 1052.00
C 461.81 1056.19 462.60 1051.41 460.00 1047.00
C 456.22 1046.60 460.39 1050.61 457.00 1051.00
C 455.62 1048.85 457.77 1046.61 457.00 1044.00
C 454.57 1044.62 454.87 1047.93 453.00 1049.00
C 454.08 1042.27 449.80 1045.22 449.00 1041.00
C 452.07 1041.28 454.40 1039.74 454.00 1036.00
C 456.74 1036.60 458.46 1034.00 461.00 1034.00
C 461.70 1038.07 465.87 1036.91 469.00 1037.00
C 467.65 1040.98 475.45 1043.78 473.00 1049.00
C 475.09 1049.31 478.06 1051.20 479.00 1048.00
C 481.42 1048.85 476.77 1053.48 481.00 1053.00
C 478.58 1043.38 480.73 1032.17 485.23 1023.23 C 489.73 1014.29 495.78 1006.73 500.08 998.08 C 504.39 989.43 512.38 983.55 517.69 975.70 C 523.01 967.84 530.38 957.06 521.75 950.25 C 513.11 943.45 507.16 940.18 498.25 933.75 C 489.34 927.33 477.15 929.39 467.22 933.22 C 457.30 937.06 448.19 941.67 437.07 940.93 C 425.95 940.18 413.90 941.76 402.00 940.00 C 390.10 938.24 383.22 942.85 372.08 948.08 C 360.94 953.30 359.61 960.10 365.00 972.00
C 374.14 979.30 376.25 991.33 385.25 998.75 C 394.25 1006.17 396.15 1020.65 407.00 1024.00
C 405.89 1028.83 406.72 1029.67 411.00 1030.00
C 409.81 1045.92 399.16 1060.68 395.78 1078.78 C 392.40 1096.87 390.90 1120.31 388.00 1139.00
M 447.00 1041.00 
C 445.71 1046.79 440.44 1040.98 447.00 1041.00 Z"/>
</g>
<g fill="None" fill-opacity="0.0" stroke="#000000" stroke-opacity="1.00" stroke-width="0.3"><path d="
M 462.00 1038.00 
C 458.26 1035.11 459.18 1041.21 462.00 1038.00 Z"/>
</g>
<g fill="None" fill-opacity="0.0" stroke="#FFFFFF" stroke-opacity="1.00" stroke-width="0.3"><path d="
M 447.00 1041.00 
C 440.44 1040.98 445.71 1046.79 447.00 1041.00 Z"/>
</g>
<g fill="None" fill-opacity="0.0" stroke="#000000" stroke-opacity="1.00" stroke-width="0.3"><path d="
M 490.00 1084.00 
C 491.15 1077.76 488.63 1068.76 484.00 1065.00
C 485.35 1068.90 484.55 1075.66 479.00 1073.00
C 479.61 1077.46 481.90 1079.12 486.00 1079.00
C 481.71 1080.32 483.90 1084.24 483.00 1088.00
C 485.40 1086.84 486.57 1081.30 490.00 1084.00 Z"/>
</g>
<g fill="None" fill-opacity="0.0" stroke="#000000" stroke-opacity="1.00" stroke-width="0.3"><path d="
M 489.00 1091.00 
C 485.80 1091.56 483.38 1089.74 481.00 1088.00
C 482.27 1092.17 483.53 1094.51 488.00 1095.00
C 486.04 1091.50 484.68 1093.04 489.00 1091.00 Z"/>
</g>
<g fill="None" fill-opacity="0.0" stroke="#000000" stroke-opacity="1.00" stroke-width="0.3"><path d="
M 483.00 1105.00 
C 491.03 1105.45 485.79 1090.65 480.00 1099.00
C 484.00 1100.21 485.81 1100.72 483.00 1105.00 Z"/>
</g>
<g fill="None" fill-opacity="0.0" stroke="#000000" stroke-opacity="1.00" stroke-width="0.3"><path d="
M 501.00 1120.00 
C 499.98 1121.87 491.56 1122.70 494.78 1126.22 C 498.00 1129.74 503.47 1123.99 501.00 1120.00 Z"/>
</g>
<g fill="#FEFEFE" fill-opacity="1.00" stroke="None">
<path d="
M 0.00 871.00 
C 9.57 868.83 18.91 866.28 28.22 863.22 C 37.53 860.17 47.74 859.01 57.02 856.02 C 66.31 853.04 76.89 850.87 86.07 848.07 C 95.26 845.28 103.46 841.34 112.68 838.68 C 121.90 836.01 130.67 831.63 139.69 828.69 C 148.72 825.76 157.86 822.85 166.68 819.68 C 175.49 816.51 184.10 813.78 192.23 809.23 C 200.36 804.67 208.91 801.19 217.03 797.03 C 225.15 792.86 230.94 787.08 239.25 783.25 C 247.55 779.41 251.85 771.60 258.25 765.25 C 264.65 758.90 266.04 750.16 276.08 747.08 C 286.11 743.99 280.55 761.64 278.01 770.01 C 275.47 778.38 273.75 790.50 272.22 800.22 C 270.69 809.95 269.72 822.24 268.67 832.67 C 267.62 843.10 267.03 856.45 266.02 867.02 C 265.01 877.60 261.13 885.92 259.22 896.22 C 257.31 906.53 259.82 920.61 261.93 930.07 C 264.03 939.54 266.06 949.11 270.77 957.23 C 275.48 965.35 276.07 976.55 286.00 979.00
C 286.52 1033.70 289.84 1085.00 294.00 1139.00
L 388.00 1139.00
C 390.90 1120.31 392.40 1096.87 395.78 1078.78 C 399.16 1060.68 409.81 1045.92 411.00 1030.00
C 406.72 1029.67 405.89 1028.83 407.00 1024.00
C 396.15 1020.65 394.25 1006.17 385.25 998.75 C 376.25 991.33 374.14 979.30 365.00 972.00
C 359.61 960.10 360.94 953.30 372.08 948.08 C 383.22 942.85 390.10 938.24 402.00 940.00 C 413.90 941.76 425.95 940.18 437.07 940.93 C 448.19 941.67 457.30 937.06 467.22 933.22 C 477.15 929.39 489.34 927.33 498.25 933.75 C 507.16 940.18 513.11 943.45 521.75 950.25 C 530.38 957.06 523.01 967.84 517.69 975.70 C 512.38 983.55 504.39 989.43 500.08 998.08 C 495.78 1006.73 489.73 1014.29 485.23 1023.23 C 480.73 1032.17 478.58 1043.38 481.00 1053.00
C 476.77 1053.48 481.42 1048.85 479.00 1048.00
C 478.06 1051.20 475.09 1049.31 473.00 1049.00
C 475.45 1043.78 467.65 1040.98 469.00 1037.00
C 465.87 1036.91 461.70 1038.07 461.00 1034.00
C 458.46 1034.00 456.74 1036.60 454.00 1036.00
C 454.40 1039.74 452.07 1041.28 449.00 1041.00
C 449.80 1045.22 454.08 1042.27 453.00 1049.00
C 454.87 1047.93 454.57 1044.62 457.00 1044.00
C 457.77 1046.61 455.62 1048.85 457.00 1051.00
C 460.39 1050.61 456.22 1046.60 460.00 1047.00
C 462.60 1051.41 461.81 1056.19 457.00 1052.00
C 457.94 1057.23 464.97 1061.65 462.00 1066.00
C 465.27 1065.90 463.34 1069.98 469.00 1067.00
C 464.90 1069.27 468.15 1070.96 464.00 1072.00
C 465.51 1077.12 465.63 1078.87 468.24 1083.77 C 470.84 1088.67 471.80 1094.06 471.00 1099.00
C 474.55 1099.14 471.96 1101.38 477.00 1103.00
C 473.60 1104.81 474.58 1106.64 479.00 1109.00
C 477.34 1111.41 474.46 1107.92 472.00 1109.00
C 470.40 1114.74 472.60 1114.75 477.00 1117.00
C 474.15 1119.38 471.96 1120.22 477.00 1122.00
C 475.42 1126.92 476.05 1128.67 472.00 1130.00
C 472.79 1132.73 475.95 1130.15 475.00 1134.00
C 470.94 1132.98 472.39 1136.87 473.00 1139.00
L 573.00 1139.00
C 584.43 1090.46 584.05 1039.90 592.80 991.75 C 601.55 943.61 614.72 897.21 619.33 847.33 C 623.94 797.45 616.34 747.46 600.00 701.00
C 615.14 712.98 627.81 727.42 643.75 740.25 C 659.69 753.07 669.83 767.83 686.25 780.75 C 702.67 793.68 728.17 795.29 748.67 801.33 C 769.18 807.37 791.74 814.05 812.68 820.32 C 833.62 826.59 855.72 833.41 877.00 839.00
L 877.00 0.00
L 0.00 0.00
L 0.00 871.00
M 633.00 487.00 
C 633.08 476.88 633.93 466.29 634.00 455.00 C 634.07 443.71 634.85 430.40 633.65 419.30 C 632.44 408.20 631.99 397.52 631.07 386.92 C 630.14 376.31 631.76 364.22 627.67 354.33 C 623.59 344.44 617.46 336.28 613.68 326.32 C 609.90 316.36 606.47 305.59 603.68 295.32 C 600.88 285.05 589.65 278.29 592.93 265.93 C 596.20 253.56 583.70 245.79 580.00 237.00
C 575.66 245.38 569.57 240.36 565.00 237.00
C 566.26 228.84 556.58 227.36 548.77 228.79 C 540.96 230.21 533.73 225.11 525.92 222.08 C 518.12 219.04 508.78 220.81 500.92 221.07 C 493.07 221.33 484.20 221.10 477.00 221.00
C 476.61 219.87 470.65 217.76 465.92 217.08 C 461.20 216.39 457.99 213.63 453.75 211.25 C 449.52 208.86 442.06 214.99 436.78 212.22 C 431.50 209.46 425.33 215.58 419.98 214.98 C 414.62 214.38 408.28 216.71 403.00 217.00 C 397.72 217.29 394.35 222.57 388.99 222.99 C 383.63 223.41 379.23 226.93 374.90 228.90 C 370.57 230.88 365.09 228.54 360.33 230.33 C 355.57 232.12 350.90 231.76 346.00 234.00
C 345.55 244.13 327.75 244.54 332.00 256.00
C 327.26 250.92 329.44 259.94 326.00 260.00
C 329.00 263.16 333.39 262.67 337.00 261.00
C 340.95 273.37 326.73 282.67 320.00 289.00
C 316.22 287.35 316.10 290.52 313.00 288.00
C 312.30 296.15 308.44 302.66 307.00 311.00
C 309.54 312.34 314.96 314.68 310.00 316.00
C 313.81 317.90 320.61 313.42 321.00 320.00
C 332.07 317.83 337.73 324.71 349.22 321.22 C 360.71 317.73 369.76 332.78 380.23 329.79 C 390.70 326.79 400.02 327.57 407.08 336.92 C 414.15 346.27 419.41 350.22 423.32 360.68 C 427.23 371.14 426.79 382.11 427.00 393.00 C 427.21 403.89 423.96 411.95 422.00 422.00
C 416.18 418.59 418.27 426.82 413.00 424.00
C 413.91 425.70 415.64 428.61 412.00 427.00
C 412.79 429.15 415.41 431.24 413.00 434.00
C 410.44 433.34 409.89 428.62 406.00 431.00
C 406.72 428.89 407.69 424.48 405.00 428.00
C 404.48 424.37 401.16 423.53 403.00 419.00
C 400.01 421.54 394.13 418.39 392.00 414.00
C 387.09 418.00 384.09 413.14 380.00 414.00
C 378.06 405.56 381.24 403.15 377.29 395.71 C 373.35 388.26 369.46 393.76 367.08 400.08 C 364.70 406.40 356.63 407.46 358.00 415.00
C 364.79 414.18 370.18 420.95 375.00 415.00
C 369.70 423.19 361.76 422.28 354.25 426.25 C 346.74 430.23 334.34 431.90 325.98 432.02 C 317.61 432.15 302.25 430.03 300.00 436.00
C 295.39 437.96 291.83 432.11 287.00 435.00
C 289.78 431.93 285.22 431.66 283.00 432.00
C 285.92 434.63 283.63 434.99 281.00 436.00
C 281.15 438.91 282.09 442.68 286.00 443.00
C 286.56 450.52 278.07 458.09 279.43 463.77 C 280.79 469.45 278.21 482.37 286.00 484.00
C 286.06 489.15 279.95 487.95 286.00 490.00
C 279.93 493.83 287.58 500.91 292.00 504.00
C 292.03 506.74 290.37 509.08 291.00 512.00
C 294.23 511.94 295.80 515.93 299.00 514.00
C 300.54 518.87 298.15 516.57 295.00 516.00
C 296.71 519.60 301.06 519.22 304.00 521.00
C 302.09 523.33 302.22 523.00 305.00 526.00
C 304.44 528.55 303.02 529.25 305.00 532.00
C 299.92 531.07 304.09 536.29 303.00 539.00
C 305.24 533.16 305.95 540.30 308.75 542.25 C 311.56 544.19 313.26 548.38 312.00 552.00
C 314.89 550.01 318.93 547.54 321.00 552.00
C 318.54 552.88 316.06 550.05 316.00 555.00
C 318.69 556.26 323.72 557.67 324.75 560.26 C 325.78 562.86 330.56 566.82 328.00 569.00
C 331.86 572.86 338.79 567.95 338.00 574.00
C 341.96 571.05 347.78 569.99 351.00 574.00
C 351.05 570.64 355.75 570.57 356.00 567.00
C 363.99 568.48 369.80 556.37 379.00 556.00
C 380.18 552.97 380.71 549.88 384.00 550.00
C 382.52 544.79 386.11 540.55 389.00 536.00
C 381.48 530.33 381.87 520.62 381.33 511.33 C 380.79 502.04 387.70 495.98 389.00 489.00
C 397.71 488.71 406.32 483.30 412.00 479.00
C 414.06 483.33 412.82 479.76 416.00 479.00
C 422.87 485.44 426.38 491.59 430.32 501.68 C 434.27 511.76 444.88 509.26 449.32 518.68 C 453.75 528.10 438.00 530.68 432.70 536.70 C 427.41 542.73 422.17 553.13 418.00 560.00
C 418.66 564.71 426.34 569.20 430.00 569.00
C 430.54 573.39 429.74 575.96 435.00 574.00
C 435.49 577.34 429.42 574.69 431.00 579.00
C 438.93 579.02 435.94 587.43 429.00 587.00 C 422.06 586.57 414.96 588.44 408.98 588.02 C 402.99 587.60 395.06 591.93 396.00 598.00
C 400.14 595.59 397.82 605.83 403.00 604.00
C 401.00 609.82 403.83 615.40 403.00 622.00
C 407.16 618.22 408.43 624.54 408.00 628.00
C 413.21 621.61 417.35 638.11 409.00 635.00
C 410.04 639.09 409.88 641.12 406.00 643.00
C 409.20 647.14 408.79 652.11 405.00 655.00
C 416.96 652.93 410.61 662.83 408.80 669.25 C 407.00 675.66 413.35 683.70 414.00 690.00
C 418.35 688.82 421.04 693.13 420.00 697.00
C 424.78 695.52 425.03 704.26 428.00 700.00
C 431.34 708.28 438.87 714.88 449.00 716.00
C 448.10 719.92 451.33 718.62 453.00 717.00
C 453.52 719.84 456.92 721.11 457.00 724.00
C 461.12 723.20 467.90 726.34 469.00 730.00
C 471.05 728.36 478.97 725.98 476.00 732.00
C 478.57 727.54 482.53 732.27 486.00 734.00
C 483.27 735.30 480.65 734.32 478.00 733.00
C 475.84 734.89 480.15 736.03 478.00 738.00
C 471.59 740.01 463.85 744.36 457.00 748.00
C 459.85 752.59 455.64 751.56 453.00 750.00
C 453.69 751.48 453.74 753.99 453.00 755.00
C 447.21 754.00 439.94 761.59 437.00 766.00
C 435.79 760.53 430.92 765.93 427.00 765.00
C 428.69 766.84 426.48 769.84 424.00 769.00
C 422.40 772.35 425.06 775.98 422.00 778.00
C 427.80 781.76 427.53 785.92 430.77 792.23 C 434.01 798.54 433.72 800.82 429.75 806.75 C 425.79 812.68 417.77 811.83 417.00 818.00
C 411.91 812.39 413.92 822.73 407.97 820.97 C 402.03 819.22 404.25 825.18 403.22 829.22 C 402.18 833.27 395.23 829.34 397.00 836.00
C 390.48 834.43 384.66 836.33 379.00 832.00
C 380.40 829.78 378.87 826.88 376.00 827.00
C 380.19 833.52 370.50 827.62 371.00 833.00
C 368.08 833.30 365.57 832.07 363.00 831.00
C 362.21 834.90 364.62 835.94 365.00 839.00
C 354.67 833.92 350.15 822.58 342.25 813.75 C 334.35 804.93 329.23 795.55 322.70 785.31 C 316.16 775.06 311.49 764.87 307.07 752.93 C 302.66 740.98 299.32 725.48 301.98 711.98 C 304.63 698.47 304.55 681.43 304.00 668.00 C 303.45 654.57 297.97 642.81 292.25 631.75 C 286.52 620.70 284.82 607.17 279.08 596.92 C 273.33 586.67 272.86 571.03 265.25 562.75 C 257.64 554.48 239.13 563.14 233.08 550.92 C 227.02 538.71 225.40 529.30 222.02 515.98 C 218.65 502.65 215.02 494.22 208.70 482.30 C 202.37 470.39 196.18 463.37 194.35 449.31 C 192.52 435.24 199.08 426.22 215.07 426.07 C 231.07 425.93 221.25 405.70 217.67 395.33 C 214.10 384.95 210.34 369.02 208.22 356.78 C 206.10 344.54 201.97 329.98 200.02 316.98 C 198.08 303.97 196.93 289.96 194.22 276.78 C 191.51 263.60 193.02 246.22 194.00 233.00 C 194.98 219.78 194.37 204.76 200.31 193.31 C 206.24 181.85 211.69 173.33 218.10 163.10 C 224.51 152.87 229.62 142.86 235.97 132.97 C 242.33 123.09 248.47 112.92 255.77 103.77 C 263.07 94.62 267.86 84.39 275.77 75.77 C 283.68 67.15 292.88 61.48 301.90 53.90 C 310.92 46.32 318.39 38.76 329.03 33.03 C 339.66 27.30 350.51 23.28 362.23 18.23 C 373.95 13.18 385.90 7.79 400.00 8.00 C 414.10 8.21 432.23 8.61 446.00 8.00 C 459.78 7.39 472.90 11.56 484.03 17.97 C 495.16 24.38 504.41 29.52 515.68 34.32 C 526.95 39.12 534.05 48.32 544.25 53.75 C 554.44 59.19 566.43 63.04 575.25 70.75 C 584.07 78.46 590.69 87.70 598.30 96.70 C 605.91 105.69 615.80 110.87 626.23 116.77 C 636.66 122.67 645.78 128.33 650.92 140.08 C 656.07 151.82 662.31 162.53 662.98 176.02 C 663.65 189.52 666.11 203.50 666.33 216.67 C 666.55 229.84 669.79 241.73 672.00 255.00 C 674.21 268.27 678.88 284.23 677.00 298.00 C 675.12 311.77 668.42 320.36 666.20 333.25 C 663.97 346.13 660.74 359.99 658.01 373.01 C 655.27 386.03 653.55 400.09 650.01 413.01 C 646.46 425.93 648.93 439.87 643.07 452.07 C 637.21 464.28 641.76 477.41 633.00 487.00
M 553.00 329.00 
C 558.07 324.75 570.05 323.31 571.00 332.00
C 581.22 330.61 581.08 339.42 588.30 343.70 C 595.52 347.98 595.86 358.37 586.99 354.01 C 578.12 349.65 572.03 351.71 564.31 352.31 C 556.58 352.90 550.55 354.82 543.25 356.40 C 535.95 357.97 530.47 363.92 524.00 367.00
C 524.69 370.11 528.42 373.17 525.00 376.00
C 542.24 380.48 559.98 385.48 575.00 395.00
C 569.11 390.89 571.85 382.32 577.69 386.31 C 583.54 390.29 586.01 393.80 583.00 399.00
C 580.68 395.24 580.02 399.84 578.00 400.00
C 586.11 410.77 567.82 408.23 563.92 404.08 C 560.03 399.92 551.34 389.96 547.70 397.70 C 544.05 405.44 539.78 410.79 531.00 411.00 C 522.22 411.21 514.35 409.00 512.00 400.00
C 507.46 400.02 506.08 405.03 503.00 407.00
C 499.43 404.29 489.78 403.80 491.20 397.75 C 492.61 391.71 491.40 385.74 486.00 382.00
C 487.72 379.73 486.73 376.66 487.00 374.00
C 479.40 373.80 481.36 361.15 479.68 354.32 C 478.00 347.50 480.28 338.17 480.00 331.00
C 488.72 324.77 498.09 329.63 506.22 332.78 C 514.36 335.92 521.76 319.94 529.68 325.32 C 537.59 330.71 545.16 320.71 553.00 329.00
M 525.00 422.00 
C 521.14 420.38 517.35 420.56 513.00 418.00
C 516.03 413.75 522.89 416.74 525.00 422.00
M 415.00 443.00 
C 408.56 440.88 414.47 436.68 415.00 443.00
M 669.00 470.00 
C 659.86 469.81 651.28 443.75 665.08 440.08 C 678.87 436.40 670.04 462.61 669.00 470.00
M 489.00 518.00 
C 485.31 520.56 477.23 522.50 481.00 515.00
C 475.61 512.69 458.58 510.45 464.26 502.26 C 469.93 494.06 478.22 491.79 486.68 495.32 C 495.14 498.85 489.29 512.65 489.00 518.00
M 513.00 591.00 
C 517.41 604.54 501.84 601.00 495.75 598.25 C 489.67 595.49 478.09 583.89 487.25 582.80 C 496.40 581.72 503.44 592.98 513.00 591.00
M 583.00 655.00 
C 580.93 656.40 579.32 656.89 577.00 656.00
C 578.29 655.20 581.87 653.33 583.00 655.00
M 544.00 698.00 
C 538.75 693.46 547.03 691.57 544.00 698.00
M 539.00 701.00 
C 538.69 703.78 533.69 702.22 536.00 707.00
C 531.59 709.45 525.67 710.11 526.00 715.00
C 521.46 716.30 525.46 712.18 523.00 711.00
C 522.11 715.11 518.34 717.75 520.00 722.00
C 514.64 718.73 510.64 722.03 505.00 723.00
C 505.52 717.48 511.58 720.02 509.00 715.00
C 516.40 719.86 517.42 704.18 525.00 708.00
C 523.12 704.84 526.39 703.79 529.00 705.00
C 528.52 702.34 532.53 701.68 532.00 699.00
C 534.35 699.26 538.07 697.97 539.00 701.00
M 462.00 1038.00 
C 459.18 1041.21 458.26 1035.11 462.00 1038.00
M 490.00 1084.00 
C 486.57 1081.30 485.40 1086.84 483.00 1088.00
C 483.90 1084.24 481.71 1080.32 486.00 1079.00
C 481.90 1079.12 479.61 1077.46 479.00 1073.00
C 484.55 1075.66 485.35 1068.90 484.00 1065.00
C 488.63 1068.76 491.15 1077.76 490.00 1084.00
M 489.00 1091.00 
C 484.68 1093.04 486.04 1091.50 488.00 1095.00
C 483.53 1094.51 482.27 1092.17 481.00 1088.00
C 483.38 1089.74 485.80 1091.56 489.00 1091.00
M 483.00 1105.00 
C 485.81 1100.72 484.00 1100.21 480.00 1099.00
C 485.79 1090.65 491.03 1105.45 483.00 1105.00
M 501.00 1120.00 
C 503.47 1123.99 498.00 1129.74 494.78 1126.22 C 491.56 1122.70 499.98 1121.87 501.00 1120.00 Z"/>
</g>
<g fill="#000000" fill-opacity="1.00" stroke="None">
<path d="
M 633.00 487.00 
C 641.76 477.41 637.21 464.28 643.07 452.07 C 648.93 439.87 646.46 425.93 650.01 413.01 C 653.55 400.09 655.27 386.03 658.01 373.01 C 660.74 359.99 663.97 346.13 666.20 333.25 C 668.42 320.36 675.12 311.77 677.00 298.00 C 678.88 284.23 674.21 268.27 672.00 255.00 C 669.79 241.73 666.55 229.84 666.33 216.67 C 666.11 203.50 663.65 189.52 662.98 176.02 C 662.31 162.53 656.07 151.82 650.92 140.08 C 645.78 128.33 636.66 122.67 626.23 116.77 C 615.80 110.87 605.91 105.69 598.30 96.70 C 590.69 87.70 584.07 78.46 575.25 70.75 C 566.43 63.04 554.44 59.19 544.25 53.75 C 534.05 48.32 526.95 39.12 515.68 34.32 C 504.41 29.52 495.16 24.38 484.03 17.97 C 472.90 11.56 459.78 7.39 446.00 8.00 C 432.23 8.61 414.10 8.21 400.00 8.00 C 385.90 7.79 373.95 13.18 362.23 18.23 C 350.51 23.28 339.66 27.30 329.03 33.03 C 318.39 38.76 310.92 46.32 301.90 53.90 C 292.88 61.48 283.68 67.15 275.77 75.77 C 267.86 84.39 263.07 94.62 255.77 103.77 C 248.47 112.92 242.33 123.09 235.97 132.97 C 229.62 142.86 224.51 152.87 218.10 163.10 C 211.69 173.33 206.24 181.85 200.31 193.31 C 194.37 204.76 194.98 219.78 194.00 233.00 C 193.02 246.22 191.51 263.60 194.22 276.78 C 196.93 289.96 198.08 303.97 200.02 316.98 C 201.97 329.98 206.10 344.54 208.22 356.78 C 210.34 369.02 214.10 384.95 217.67 395.33 C 221.25 405.70 231.07 425.93 215.07 426.07 C 199.08 426.22 192.52 435.24 194.35 449.31 C 196.18 463.37 202.37 470.39 208.70 482.30 C 215.02 494.22 218.65 502.65 222.02 515.98 C 225.40 529.30 227.02 538.71 233.08 550.92 C 239.13 563.14 257.64 554.48 265.25 562.75 C 272.86 571.03 273.33 586.67 279.08 596.92 C 284.82 607.17 286.52 620.70 292.25 631.75 C 297.97 642.81 303.45 654.57 304.00 668.00 C 304.55 681.43 304.63 698.47 301.98 711.98 C 299.32 725.48 302.66 740.98 307.07 752.93 C 311.49 764.87 316.16 775.06 322.70 785.31 C 329.23 795.55 334.35 804.93 342.25 813.75 C 350.15 822.58 354.67 833.92 365.00 839.00
C 364.62 835.94 362.21 834.90 363.00 831.00
C 365.57 832.07 368.08 833.30 371.00 833.00
C 370.50 827.62 380.19 833.52 376.00 827.00
C 378.87 826.88 380.40 829.78 379.00 832.00
C 384.66 836.33 390.48 834.43 397.00 836.00
C 395.23 829.34 402.18 833.27 403.22 829.22 C 404.25 825.18 402.03 819.22 407.97 820.97 C 413.92 822.73 411.91 812.39 417.00 818.00
C 417.77 811.83 425.79 812.68 429.75 806.75 C 433.72 800.82 434.01 798.54 430.77 792.23 C 427.53 785.92 427.80 781.76 422.00 778.00
C 425.06 775.98 422.40 772.35 424.00 769.00
C 426.48 769.84 428.69 766.84 427.00 765.00
C 430.92 765.93 435.79 760.53 437.00 766.00
C 439.94 761.59 447.21 754.00 453.00 755.00
C 453.74 753.99 453.69 751.48 453.00 750.00
C 455.64 751.56 459.85 752.59 457.00 748.00
C 463.85 744.36 471.59 740.01 478.00 738.00
C 480.15 736.03 475.84 734.89 478.00 733.00
C 480.65 734.32 483.27 735.30 486.00 734.00
C 482.53 732.27 478.57 727.54 476.00 732.00
C 478.97 725.98 471.05 728.36 469.00 730.00
C 467.90 726.34 461.12 723.20 457.00 724.00
C 456.92 721.11 453.52 719.84 453.00 717.00
C 451.33 718.62 448.10 719.92 449.00 716.00
C 438.87 714.88 431.34 708.28 428.00 700.00
C 425.03 704.26 424.78 695.52 420.00 697.00
C 421.04 693.13 418.35 688.82 414.00 690.00
C 413.35 683.70 407.00 675.66 408.80 669.25 C 410.61 662.83 416.96 652.93 405.00 655.00
C 408.79 652.11 409.20 647.14 406.00 643.00
C 409.88 641.12 410.04 639.09 409.00 635.00
C 417.35 638.11 413.21 621.61 408.00 628.00
C 408.43 624.54 407.16 618.22 403.00 622.00
C 403.83 615.40 401.00 609.82 403.00 604.00
C 397.82 605.83 400.14 595.59 396.00 598.00
C 395.06 591.93 402.99 587.60 408.98 588.02 C 414.96 588.44 422.06 586.57 429.00 587.00 C 435.94 587.43 438.93 579.02 431.00 579.00
C 429.42 574.69 435.49 577.34 435.00 574.00
C 429.74 575.96 430.54 573.39 430.00 569.00
C 426.34 569.20 418.66 564.71 418.00 560.00
C 422.17 553.13 427.41 542.73 432.70 536.70 C 438.00 530.68 453.75 528.10 449.32 518.68 C 444.88 509.26 434.27 511.76 430.32 501.68 C 426.38 491.59 422.87 485.44 416.00 479.00
C 412.82 479.76 414.06 483.33 412.00 479.00
C 406.32 483.30 397.71 488.71 389.00 489.00
C 387.70 495.98 380.79 502.04 381.33 511.33 C 381.87 520.62 381.48 530.33 389.00 536.00
C 386.11 540.55 382.52 544.79 384.00 550.00
C 380.71 549.88 380.18 552.97 379.00 556.00
C 369.80 556.37 363.99 568.48 356.00 567.00
C 355.75 570.57 351.05 570.64 351.00 574.00
C 347.78 569.99 341.96 571.05 338.00 574.00
C 338.79 567.95 331.86 572.86 328.00 569.00
C 330.56 566.82 325.78 562.86 324.75 560.26 C 323.72 557.67 318.69 556.26 316.00 555.00
C 316.06 550.05 318.54 552.88 321.00 552.00
C 318.93 547.54 314.89 550.01 312.00 552.00
C 313.26 548.38 311.56 544.19 308.75 542.25 C 305.95 540.30 305.24 533.16 303.00 539.00
C 304.09 536.29 299.92 531.07 305.00 532.00
C 303.02 529.25 304.44 528.55 305.00 526.00
C 302.22 523.00 302.09 523.33 304.00 521.00
C 301.06 519.22 296.71 519.60 295.00 516.00
C 298.15 516.57 300.54 518.87 299.00 514.00
C 295.80 515.93 294.23 511.94 291.00 512.00
C 290.37 509.08 292.03 506.74 292.00 504.00
C 287.58 500.91 279.93 493.83 286.00 490.00
C 279.95 487.95 286.06 489.15 286.00 484.00
C 278.21 482.37 280.79 469.45 279.43 463.77 C 278.07 458.09 286.56 450.52 286.00 443.00
C 282.09 442.68 281.15 438.91 281.00 436.00
C 283.63 434.99 285.92 434.63 283.00 432.00
C 285.22 431.66 289.78 431.93 287.00 435.00
C 291.83 432.11 295.39 437.96 300.00 436.00
C 302.25 430.03 317.61 432.15 325.98 432.02 C 334.34 431.90 346.74 430.23 354.25 426.25 C 361.76 422.28 369.70 423.19 375.00 415.00
C 370.18 420.95 364.79 414.18 358.00 415.00
C 356.63 407.46 364.70 406.40 367.08 400.08 C 369.46 393.76 373.35 388.26 377.29 395.71 C 381.24 403.15 378.06 405.56 380.00 414.00
C 384.09 413.14 387.09 418.00 392.00 414.00
C 394.13 418.39 400.01 421.54 403.00 419.00
C 401.16 423.53 404.48 424.37 405.00 428.00
C 407.69 424.48 406.72 428.89 406.00 431.00
C 409.89 428.62 410.44 433.34 413.00 434.00
C 415.41 431.24 412.79 429.15 412.00 427.00
C 415.64 428.61 413.91 425.70 413.00 424.00
C 418.27 426.82 416.18 418.59 422.00 422.00
C 423.96 411.95 427.21 403.89 427.00 393.00 C 426.79 382.11 427.23 371.14 423.32 360.68 C 419.41 350.22 414.15 346.27 407.08 336.92 C 400.02 327.57 390.70 326.79 380.23 329.79 C 369.76 332.78 360.71 317.73 349.22 321.22 C 337.73 324.71 332.07 317.83 321.00 320.00
C 320.61 313.42 313.81 317.90 310.00 316.00
C 314.96 314.68 309.54 312.34 307.00 311.00
C 308.44 302.66 312.30 296.15 313.00 288.00
C 316.10 290.52 316.22 287.35 320.00 289.00
C 326.73 282.67 340.95 273.37 337.00 261.00
C 333.39 262.67 329.00 263.16 326.00 260.00
C 329.44 259.94 327.26 250.92 332.00 256.00
C 327.75 244.54 345.55 244.13 346.00 234.00
C 350.90 231.76 355.57 232.12 360.33 230.33 C 365.09 228.54 370.57 230.88 374.90 228.90 C 379.23 226.93 383.63 223.41 388.99 222.99 C 394.35 222.57 397.72 217.29 403.00 217.00 C 408.28 216.71 414.62 214.38 419.98 214.98 C 425.33 215.58 431.50 209.46 436.78 212.22 C 442.06 214.99 449.52 208.86 453.75 211.25 C 457.99 213.63 461.20 216.39 465.92 217.08 C 470.65 217.76 476.61 219.87 477.00 221.00
C 484.20 221.10 493.07 221.33 500.92 221.07 C 508.78 220.81 518.12 219.04 525.92 222.08 C 533.73 225.11 540.96 230.21 548.77 228.79 C 556.58 227.36 566.26 228.84 565.00 237.00
C 569.57 240.36 575.66 245.38 580.00 237.00
C 583.70 245.79 596.20 253.56 592.93 265.93 C 589.65 278.29 600.88 285.05 603.68 295.32 C 606.47 305.59 609.90 316.36 613.68 326.32 C 617.46 336.28 623.59 344.44 627.67 354.33 C 631.76 364.22 630.14 376.31 631.07 386.92 C 631.99 397.52 632.44 408.20 633.65 419.30 C 634.85 430.40 634.07 443.71 634.00 455.00 C 633.93 466.29 633.08 476.88 633.00 487.00
M 482.00 200.00 
C 484.81 203.92 477.61 203.85 476.00 202.00
C 478.32 202.44 480.02 200.76 482.00 200.00
M 479.00 207.00 
C 478.29 208.89 476.63 211.85 474.00 212.00
C 474.42 209.19 475.21 205.88 479.00 207.00
M 365.00 377.00 
C 357.36 378.10 345.02 380.55 344.00 372.00
C 337.49 373.74 332.52 370.40 327.00 373.00
C 326.74 365.95 335.51 364.08 343.67 365.33 C 351.83 366.58 357.46 372.93 365.00 377.00
M 267.00 510.00 
C 263.61 514.65 262.11 506.93 267.00 510.00
M 306.00 543.00 
C 301.76 541.38 306.89 538.18 306.00 543.00
M 430.00 578.00 
C 427.18 581.21 426.26 575.11 430.00 578.00
M 375.00 605.00 
C 376.56 607.92 375.19 613.71 371.00 611.00
C 372.99 609.68 374.27 608.56 373.00 606.00
C 371.47 609.45 369.77 608.06 367.00 607.00
C 368.41 604.71 371.65 603.21 368.00 600.00
C 373.28 598.87 370.52 605.76 375.00 605.00
M 376.00 729.00 
C 374.38 733.24 371.18 728.11 376.00 729.00 Z"/>
</g>
<g fill="#E0E0E0" fill-opacity="1.00" stroke="None">
<path d="
M 482.00 200.00 
C 480.02 200.76 478.32 202.44 476.00 202.00
C 477.61 203.85 484.81 203.92 482.00 200.00 Z"/>
</g>
<g fill="#FFFFFF" fill-opacity="1.00" stroke="None">
<path d="
M 479.00 207.00 
C 475.21 205.88 474.42 209.19 474.00 212.00
C 476.63 211.85 478.29 208.89 479.00 207.00 Z"/>
</g>
<g fill="#000000" fill-opacity="1.00" stroke="None">
<path d="
M 553.00 329.00 
C 545.16 320.71 537.59 330.71 529.68 325.32 C 521.76 319.94 514.36 335.92 506.22 332.78 C 498.09 329.63 488.72 324.77 480.00 331.00
C 480.28 338.17 478.00 347.50 479.68 354.32 C 481.36 361.15 479.40 373.80 487.00 374.00
C 486.73 376.66 487.72 379.73 486.00 382.00
C 491.40 385.74 492.61 391.71 491.20 397.75 C 489.78 403.80 499.43 404.29 503.00 407.00
C 506.08 405.03 507.46 400.02 512.00 400.00
C 514.35 409.00 522.22 411.21 531.00 411.00 C 539.78 410.79 544.05 405.44 547.70 397.70 C 551.34 389.96 560.03 399.92 563.92 404.08 C 567.82 408.23 586.11 410.77 578.00 400.00
C 580.02 399.84 580.68 395.24 583.00 399.00
C 586.01 393.80 583.54 390.29 577.69 386.31 C 571.85 382.32 569.11 390.89 575.00 395.00
C 559.98 385.48 542.24 380.48 525.00 376.00
C 528.42 373.17 524.69 370.11 524.00 367.00
C 530.47 363.92 535.95 357.97 543.25 356.40 C 550.55 354.82 556.58 352.90 564.31 352.31 C 572.03 351.71 578.12 349.65 586.99 354.01 C 595.86 358.37 595.52 347.98 588.30 343.70 C 581.08 339.42 581.22 330.61 571.00 332.00
C 570.05 323.31 558.07 324.75 553.00 329.00 Z"/>
</g>
<g fill="#FFFFFF" fill-opacity="1.00" stroke="None">
<path d="
M 365.00 377.00 
C 357.46 372.93 351.83 366.58 343.67 365.33 C 335.51 364.08 326.74 365.95 327.00 373.00
C 332.52 370.40 337.49 373.74 344.00 372.00
C 345.02 380.55 357.36 378.10 365.00 377.00 Z"/>
</g>
<g fill="#000000" fill-opacity="1.00" stroke="None">
<path d="
M 525.00 422.00 
C 522.89 416.74 516.03 413.75 513.00 418.00
C 517.35 420.56 521.14 420.38 525.00 422.00 Z"/>
</g>
<g fill="#060606" fill-opacity="1.00" stroke="None">
<path d="
M 415.00 443.00 
C 414.47 436.68 408.56 440.88 415.00 443.00 Z"/>
</g>
<g fill="#000000" fill-opacity="1.00" stroke="None">
<path d="
M 669.00 470.00 
C 670.04 462.61 678.87 436.40 665.08 440.08 C 651.28 443.75 659.86 469.81 669.00 470.00 Z"/>
</g>
<g fill="#000000" fill-opacity="1.00" stroke="None">
<path d="
M 489.00 518.00 
C 489.29 512.65 495.14 498.85 486.68 495.32 C 478.22 491.79 469.93 494.06 464.26 502.26 C 458.58 510.45 475.61 512.69 481.00 515.00
C 477.23 522.50 485.31 520.56 489.00 518.00 Z"/>
</g>
<g fill="#FFFFFF" fill-opacity="1.00" stroke="None">
<path d="
M 267.00 510.00 
C 262.11 506.93 263.61 514.65 267.00 510.00 Z"/>
</g>
<g fill="#FFFFFF" fill-opacity="1.00" stroke="None">
<path d="
M 306.00 543.00 
C 306.89 538.18 301.76 541.38 306.00 543.00 Z"/>
</g>
<g fill="#FFFFFF" fill-opacity="1.00" stroke="None">
<path d="
M 430.00 578.00 
C 426.26 575.11 427.18 581.21 430.00 578.00 Z"/>
</g>
<g fill="#000000" fill-opacity="1.00" stroke="None">
<path d="
M 513.00 591.00 
C 503.44 592.98 496.40 581.72 487.25 582.80 C 478.09 583.89 489.67 595.49 495.75 598.25 C 501.84 601.00 517.41 604.54 513.00 591.00 Z"/>
</g>
<g fill="#FFFFFF" fill-opacity="1.00" stroke="None">
<path d="
M 375.00 605.00 
C 370.52 605.76 373.28 598.87 368.00 600.00
C 371.65 603.21 368.41 604.71 367.00 607.00
C 369.77 608.06 371.47 609.45 373.00 606.00
C 374.27 608.56 372.99 609.68 371.00 611.00
C 375.19 613.71 376.56 607.92 375.00 605.00 Z"/>
</g>
<g fill="#000000" fill-opacity="1.00" stroke="None">
<path d="
M 583.00 655.00 
C 581.87 653.33 578.29 655.20 577.00 656.00
C 579.32 656.89 580.93 656.40 583.00 655.00 Z"/>
</g>
<g fill="#000000" fill-opacity="1.00" stroke="None">
<path d="
M 544.00 698.00 
C 547.03 691.57 538.75 693.46 544.00 698.00 Z"/>
</g>
<g fill="#000000" fill-opacity="1.00" stroke="None">
<path d="
M 539.00 701.00 
C 538.07 697.97 534.35 699.26 532.00 699.00
C 532.53 701.68 528.52 702.34 529.00 705.00
C 526.39 703.79 523.12 704.84 525.00 708.00
C 517.42 704.18 516.40 719.86 509.00 715.00
C 511.58 720.02 505.52 717.48 505.00 723.00
C 510.64 722.03 514.64 718.73 520.00 722.00
C 518.34 717.75 522.11 715.11 523.00 711.00
C 525.46 712.18 521.46 716.30 526.00 715.00
C 525.67 710.11 531.59 709.45 536.00 707.00
C 533.69 702.22 538.69 703.78 539.00 701.00 Z"/>
</g>
<g fill="#000000" fill-opacity="1.00" stroke="None">
<path d="
M 573.00 1139.00 
L 877.00 1139.00
L 877.00 839.00
C 855.72 833.41 833.62 826.59 812.68 820.32 C 791.74 814.05 769.18 807.37 748.67 801.33 C 728.17 795.29 702.67 793.68 686.25 780.75 C 669.83 767.83 659.69 753.07 643.75 740.25 C 627.81 727.42 615.14 712.98 600.00 701.00
C 616.34 747.46 623.94 797.45 619.33 847.33 C 614.72 897.21 601.55 943.61 592.80 991.75 C 584.05 1039.90 584.43 1090.46 573.00 1139.00 Z"/>
</g>
<g fill="#FFFFFF" fill-opacity="1.00" stroke="None">
<path d="
M 376.00 729.00 
C 371.18 728.11 374.38 733.24 376.00 729.00 Z"/>
</g>
<g fill="#000000" fill-opacity="1.00" stroke="None">
<path d="
M 0.00 871.00 
L 0.00 1139.00
L 294.00 1139.00
C 289.84 1085.00 286.52 1033.70 286.00 979.00
C 276.07 976.55 275.48 965.35 270.77 957.23 C 266.06 949.11 264.03 939.54 261.93 930.07 C 259.82 920.61 257.31 906.53 259.22 896.22 C 261.13 885.92 265.01 877.60 266.02 867.02 C 267.03 856.45 267.62 843.10 268.67 832.67 C 269.72 822.24 270.69 809.95 272.22 800.22 C 273.75 790.50 275.47 778.38 278.01 770.01 C 280.55 761.64 286.11 743.99 276.08 747.08 C 266.04 750.16 264.65 758.90 258.25 765.25 C 251.85 771.60 247.55 779.41 239.25 783.25 C 230.94 787.08 225.15 792.86 217.03 797.03 C 208.91 801.19 200.36 804.67 192.23 809.23 C 184.10 813.78 175.49 816.51 166.68 819.68 C 157.86 822.85 148.72 825.76 139.69 828.69 C 130.67 831.63 121.90 836.01 112.68 838.68 C 103.46 841.34 95.26 845.28 86.07 848.07 C 76.89 850.87 66.31 853.04 57.02 856.02 C 47.74 859.01 37.53 860.17 28.22 863.22 C 18.91 866.28 9.57 868.83 0.00 871.00 Z"/>
</g>
<g fill="#000000" fill-opacity="1.00" stroke="None">
<path d="
M 388.00 1139.00 
L 473.00 1139.00
C 472.39 1136.87 470.94 1132.98 475.00 1134.00
C 475.95 1130.15 472.79 1132.73 472.00 1130.00
C 476.05 1128.67 475.42 1126.92 477.00 1122.00
C 471.96 1120.22 474.15 1119.38 477.00 1117.00
C 472.60 1114.75 470.40 1114.74 472.00 1109.00
C 474.46 1107.92 477.34 1111.41 479.00 1109.00
C 474.58 1106.64 473.60 1104.81 477.00 1103.00
C 471.96 1101.38 474.55 1099.14 471.00 1099.00
C 471.80 1094.06 470.84 1088.67 468.24 1083.77 C 465.63 1078.87 465.51 1077.12 464.00 1072.00
C 468.15 1070.96 464.90 1069.27 469.00 1067.00
C 463.34 1069.98 465.27 1065.90 462.00 1066.00
C 464.97 1061.65 457.94 1057.23 457.00 1052.00
C 461.81 1056.19 462.60 1051.41 460.00 1047.00
C 456.22 1046.60 460.39 1050.61 457.00 1051.00
C 455.62 1048.85 457.77 1046.61 457.00 1044.00
C 454.57 1044.62 454.87 1047.93 453.00 1049.00
C 454.08 1042.27 449.80 1045.22 449.00 1041.00
C 452.07 1041.28 454.40 1039.74 454.00 1036.00
C 456.74 1036.60 458.46 1034.00 461.00 1034.00
C 461.70 1038.07 465.87 1036.91 469.00 1037.00
C 467.65 1040.98 475.45 1043.78 473.00 1049.00
C 475.09 1049.31 478.06 1051.20 479.00 1048.00
C 481.42 1048.85 476.77 1053.48 481.00 1053.00
C 478.58 1043.38 480.73 1032.17 485.23 1023.23 C 489.73 1014.29 495.78 1006.73 500.08 998.08 C 504.39 989.43 512.38 983.55 517.69 975.70 C 523.01 967.84 530.38 957.06 521.75 950.25 C 513.11 943.45 507.16 940.18 498.25 933.75 C 489.34 927.33 477.15 929.39 467.22 933.22 C 457.30 937.06 448.19 941.67 437.07 940.93 C 425.95 940.18 413.90 941.76 402.00 940.00 C 390.10 938.24 383.22 942.85 372.08 948.08 C 360.94 953.30 359.61 960.10 365.00 972.00
C 374.14 979.30 376.25 991.33 385.25 998.75 C 394.25 1006.17 396.15 1020.65 407.00 1024.00
C 405.89 1028.83 406.72 1029.67 411.00 1030.00
C 409.81 1045.92 399.16 1060.68 395.78 1078.78 C 392.40 1096.87 390.90 1120.31 388.00 1139.00
M 447.00 1041.00 
C 445.71 1046.79 440.44 1040.98 447.00 1041.00 Z"/>
</g>
<g fill="#000000" fill-opacity="1.00" stroke="None">
<path d="
M 462.00 1038.00 
C 458.26 1035.11 459.18 1041.21 462.00 1038.00 Z"/>
</g>
<g fill="#FFFFFF" fill-opacity="1.00" stroke="None">
<path d="
M 447.00 1041.00 
C 440.44 1040.98 445.71 1046.79 447.00 1041.00 Z"/>
</g>
<g fill="#000000" fill-opacity="1.00" stroke="None">
<path d="
M 490.00 1084.00 
C 491.15 1077.76 488.63 1068.76 484.00 1065.00
C 485.35 1068.90 484.55 1075.66 479.00 1073.00
C 479.61 1077.46 481.90 1079.12 486.00 1079.00
C 481.71 1080.32 483.90 1084.24 483.00 1088.00
C 485.40 1086.84 486.57 1081.30 490.00 1084.00 Z"/>
</g>
<g fill="#000000" fill-opacity="1.00" stroke="None">
<path d="
M 489.00 1091.00 
C 485.80 1091.56 483.38 1089.74 481.00 1088.00
C 482.27 1092.17 483.53 1094.51 488.00 1095.00
C 486.04 1091.50 484.68 1093.04 489.00 1091.00 Z"/>
</g>
<g fill="#000000" fill-opacity="1.00" stroke="None">
<path d="
M 483.00 1105.00 
C 491.03 1105.45 485.79 1090.65 480.00 1099.00
C 484.00 1100.21 485.81 1100.72 483.00 1105.00 Z"/>
</g>
<g fill="#000000" fill-opacity="1.00" stroke="None">
<path d="
M 501.00 1120.00 
C 499.98 1121.87 491.56 1122.70 494.78 1126.22 C 498.00 1129.74 503.47 1123.99 501.00 1120.00 Z"/>
</g>
</svg>